<svg xmlns="http://www.w3.org/2000/svg" width="1200" height="760" viewBox="0 0 1200 760">
  <defs>
    <linearGradient id="bg" x1="0" y1="0" x2="1" y2="1">
      <stop offset="0" stop-color="#1e1f22"/>
      <stop offset="1" stop-color="#111214"/>
    </linearGradient>
    <linearGradient id="cover" x1="0" y1="0" x2="1" y2="1">
      <stop offset="0" stop-color="#25f4ee"/>
      <stop offset="0.45" stop-color="#15171b"/>
      <stop offset="1" stop-color="#fe2c55"/>
    </linearGradient>
    <filter id="shadow" x="-20%" y="-20%" width="140%" height="140%">
      <feDropShadow dx="0" dy="12" stdDeviation="18" flood-color="#000" flood-opacity=".35"/>
    </filter>
  </defs>

  <rect width="1200" height="760" fill="url(#bg)"/>
  <rect x="70" y="55" width="1060" height="650" rx="20" fill="#2b2d31" filter="url(#shadow)"/>

  <circle cx="125" cy="112" r="26" fill="#5865f2"/>
  <text x="125" y="120" text-anchor="middle" fill="white" font-family="Arial" font-size="22" font-weight="700">R</text>
  <text x="166" y="104" fill="#f2f3f5" font-family="Arial" font-size="20" font-weight="700">REST AREA BOT</text>
  <rect x="333" y="85" width="44" height="23" rx="4" fill="#5865f2"/>
  <text x="355" y="102" text-anchor="middle" fill="white" font-family="Arial" font-size="12" font-weight="700">APP</text>
  <text x="166" y="132" fill="#b5bac1" font-family="Arial" font-size="15">Hari ini pukul 20.15</text>

  <text x="112" y="184" fill="#f2f3f5" font-family="Arial" font-size="19"><tspan font-weight="700">@everyone @restarea</tspan> sedang LIVE di TikTok!</text>

  <rect x="112" y="212" width="946" height="416" rx="8" fill="#232428"/>
  <rect x="112" y="212" width="5" height="416" rx="3" fill="#fe2c55"/>

  <circle cx="158" cy="254" r="21" fill="#fe2c55"/>
  <text x="158" y="262" text-anchor="middle" fill="white" font-family="Arial" font-size="20" font-weight="700">R</text>
  <text x="191" y="249" fill="#dbdee1" font-family="Arial" font-size="16" font-weight="700">REST AREA sedang LIVE</text>
  <text x="191" y="272" fill="#b5bac1" font-family="Arial" font-size="14">TikTok LIVE</text>

  <text x="140" y="317" fill="#00a8fc" font-family="Arial" font-size="24" font-weight="700">Mabar dan ngobrol bareng!</text>
  <text x="140" y="354" fill="#dbdee1" font-family="Arial" font-size="17"><tspan font-weight="700">@restarea</tspan> baru saja memulai siaran langsung di TikTok.</text>
  <text x="140" y="385" fill="#dbdee1" font-family="Arial" font-size="17">Gabung sekarang dan ramaikan live-nya!</text>

  <text x="140" y="430" fill="#f2f3f5" font-family="Arial" font-size="15" font-weight="700">Platform</text>
  <text x="140" y="455" fill="#dbdee1" font-family="Arial" font-size="16">TikTok LIVE</text>
  <text x="340" y="430" fill="#f2f3f5" font-family="Arial" font-size="15" font-weight="700">Status</text>
  <text x="340" y="455" fill="#fe2c55" font-family="Arial" font-size="16" font-weight="700">LIVE SEKARANG</text>

  <clipPath id="bannerClip">
    <rect x="690" y="242" width="335" height="214" rx="10"/>
  </clipPath>
  <rect x="690" y="242" width="335" height="214" rx="10" fill="url(#cover)"/>
  <image
    href="https://cdn.discordapp.com/attachments/1514363278615380281/1516071949464506389/standard_8.gif?ex=6a314f88&amp;is=6a2ffe08&amp;hm=b41abe3bc03608fda8acf74fcddc9e17410954ecfc7bc57da237a43f041fd196&amp;"
    x="690"
    y="242"
    width="335"
    height="214"
    preserveAspectRatio="xMidYMid slice"
    clip-path="url(#bannerClip)"
  />
  <circle cx="857" cy="335" r="48" fill="#111" fill-opacity=".65" stroke="#fff" stroke-opacity=".7" stroke-width="3"/>
  <polygon points="846,312 846,358 881,335" fill="white"/>
  <rect x="718" y="266" width="74" height="28" rx="14" fill="#fe2c55"/>
  <text x="755" y="285" text-anchor="middle" fill="white" font-family="Arial" font-size="13" font-weight="700">LIVE</text>

  <text x="140" y="494" fill="#949ba4" font-family="Arial" font-size="13">REST AREA Live Notification  •  Hari ini pukul 20.15</text>

  <rect x="140" y="528" width="190" height="52" rx="5" fill="#4e5058"/>
  <text x="235" y="560" text-anchor="middle" fill="white" font-family="Arial" font-size="16" font-weight="700">Tonton LIVE ↗</text>
  <rect x="342" y="528" width="190" height="52" rx="5" fill="#4e5058"/>
  <text x="437" y="560" text-anchor="middle" fill="white" font-family="Arial" font-size="16" font-weight="700">Buka Profil ↗</text>

  <text x="600" y="684" text-anchor="middle" fill="#949ba4" font-family="Arial" font-size="14">Preview Discord • data contoh</text>
</svg>
